<svg xmlns="http://www.w3.org/2000/svg" width="28" height="28" fill="none"><path fill-rule="evenodd" clip-rule="evenodd" d="M15.347 11.845c-.114 1.953-1.79 3.598-3.744 3.675-1.955.077-3.447-1.444-3.334-3.396.113-1.953 1.79-3.598 3.744-3.675 1.954-.077 3.447 1.444 3.334 3.396Zm-3.674 2.54c.077-1.326 1.21-2.443 2.538-2.499-1.322.044-2.332-.98-2.26-2.303-.08 1.327-1.219 2.44-2.546 2.492 1.332-.052 2.345.98 2.268 2.31Z" fill="#fff"/><path fill-rule="evenodd" clip-rule="evenodd" d="m12.186 5.761.53 1.265a4.454 4.454 0 0 1 2.711 1.202l.65-.393-.412.638a4.458 4.458 0 0 1 1.117 2.695l1.252.59-1.324.653a5.538 5.538 0 0 1-1.475 2.838l.332.613-.601-.351a5.533 5.533 0 0 1-2.823 1.383l-.679 1.312-.566-1.263c-2.234-.193-3.915-1.905-4.065-4.143l-1.255-.553 1.327-.691c.412-2.26 2.299-4.112 4.566-4.481l.715-1.314Zm-.64 10.728c2.49-.098 4.626-2.194 4.77-4.682.144-2.488-1.757-4.425-4.247-4.327-2.49.098-4.626 2.194-4.77 4.681-.144 2.488 1.757 4.426 4.247 4.328Z" fill="#fff"/><path d="M8.379 8.72c.087-.09.177-.177.27-.262l-.602-.352.332.614ZM7.95 15.496l-.413.637.65-.392a4.346 4.346 0 0 1-.237-.245ZM24 13.164a1 1 0 1 0 0-2 1 1 0 0 0 0 2Z" fill="#fff"/><path fill-rule="evenodd" clip-rule="evenodd" d="M2.813 22.943a4.602 4.602 0 0 1-.265-2.332c.11-.765.235-2.53.387-4.65.04-.554.081-1.134.125-1.726.207-2.827.456-5.926.762-7.928.067-.53.344-1.117.762-1.6.424-.49 1.027-.91 1.772-1.039 1.83-.314 4.544-.7 7.034-.888 1.243-.095 2.442-.141 3.452-.103.983.037 1.872.155 2.436.445a.673.673 0 0 1 .282.285c.048.09.077.185.096.268.038.165.053.359.057.557.008.4-.027.915-.08 1.459l-.005.051.624-.022a2.093 2.093 0 0 1 2.15 1.972c.032.647.065 1.463.087 2.39.425-.05.822-.144 1.193-.233l.046-.01c.242-.059.49-.116.719-.148.228-.032.479-.045.722.012.258.06.492.195.677.423.175.218.283.494.352.806.167.766.305 1.464.302 2.06-.003.617-.158 1.187-.63 1.634-.45.424-1.119.67-1.997.821-.417.072-.896.124-1.445.159-.112 2.152-.35 4.373-.811 6.281-.349 1.44-1.675 2.308-3.068 2.368-.706.03-1.501.07-2.35.11-2.79.135-6.162.299-8.879.299-2.19 0-3.374-.307-4.026-.675-.333-.189-.538-.4-.657-.6a1.028 1.028 0 0 1-.132-.373.673.673 0 0 1-.004-.04v-.018l-.001-.007v-.006l.313-.002Zm3.712-18.29c1.81-.31 4.49-.69 6.94-.876 1.226-.093 2.383-.137 3.339-.1.873.032 1.513.13 1.888.277.01.069.018.167.021.298.007.34-.023.807-.075 1.342-.065.664-.158 1.387-.244 2.058-.054.419-.105.817-.145 1.169l-.033.287.233.172c.471.347.734.918.874 1.462a4.572 4.572 0 0 1 .136.936v.043l.001.004v.015l.004.061.011.239a29.846 29.846 0 0 1-.064 3.592c-.084 1.022-.237 2.063-.502 2.92-.273.881-.63 1.457-1.041 1.7-.002 0-.02.01-.064.023a1.705 1.705 0 0 1-.188.044c-.16.03-.372.054-.631.073-.52.038-1.194.052-1.973.057-.512.002-1.069 0-1.651-.001-1.178-.003-2.461-.007-3.696.024-1.84.047-3.642.174-4.895.517-.473.13-.919.302-1.261.55a3.726 3.726 0 0 1 .03-.786c.114-.805.244-2.624.396-4.751l.122-1.694c.208-2.84.455-5.901.755-7.856v-.008l.002-.008c.036-.301.213-.713.526-1.075.309-.357.717-.627 1.185-.707Zm13.887 11.01-.004.05c-.087 1.055-.248 2.178-.544 3.135-.289.933-.74 1.824-1.488 2.265-.168.099-.381.153-.58.19a7.04 7.04 0 0 1-.738.086c-.555.041-1.258.055-2.04.06-.529.002-1.094 0-1.68-.001h-.002a128.577 128.577 0 0 0-3.645.024c-1.842.047-3.533.174-4.657.481-.573.157-.913.34-1.071.51a.34.34 0 0 0-.1.19.55.55 0 0 0 .067.3l-.218.12c.022.015.047.03.074.045.428.242 1.405.546 3.534.546 2.69 0 6.024-.162 8.81-.297.855-.04 1.659-.08 2.376-.11 1.038-.046 1.915-.679 2.139-1.605.434-1.796.667-3.912.78-6.002-.32.008-.657.013-1.013.014Zm-.896-8.916c-.044.36-.09.724-.134 1.067-.04.304-.077.593-.108.852.328.302.563.663.732 1.022l.19.082c.455.194.886.294 1.293.332a96.038 96.038 0 0 0-.086-2.362 1.094 1.094 0 0 0-1.115-1.021l-.772.028Zm1.15 4.23c.175 1.09.155 2.145.135 3.189l-.009.495c1.254-.013 2.201-.077 2.912-.2.812-.138 1.245-.342 1.478-.562.21-.198.315-.465.318-.912.002-.468-.109-1.06-.28-1.841-.049-.226-.11-.339-.153-.393a.2.2 0 0 0-.125-.076 1.03 1.03 0 0 0-.357.004c-.175.025-.377.07-.625.13l-.083.02c-.803.192-1.91.457-3.21.145Z" fill="#fff"/></svg>